<mxfile host="Electron" modified="2023-10-09T14:08:02.902Z" agent="Mozilla/5.0 (X11; Linux x86_64) AppleWebKit/537.36 (KHTML, like Gecko) draw.io/22.0.2 Chrome/114.0.5735.289 Electron/25.9.0 Safari/537.36" etag="zovIu-eqXY_0YO_o0zm1" version="22.0.2" type="device">
  <diagram id="C5RBs43oDa-KdzZeNtuy" name="Page-1">
    <mxGraphModel dx="1222" dy="832" grid="1" gridSize="10" guides="1" tooltips="1" connect="1" arrows="1" fold="1" page="1" pageScale="1" pageWidth="827" pageHeight="1169" math="0" shadow="0">
      <root>
        <mxCell id="WIyWlLk6GJQsqaUBKTNV-0" />
        <mxCell id="WIyWlLk6GJQsqaUBKTNV-1" parent="WIyWlLk6GJQsqaUBKTNV-0" />
        <mxCell id="VoG-BgtW9BaaPpn9Sk2n-4" value="" style="edgeStyle=orthogonalEdgeStyle;rounded=0;orthogonalLoop=1;jettySize=auto;html=1;" edge="1" parent="WIyWlLk6GJQsqaUBKTNV-1" source="VoG-BgtW9BaaPpn9Sk2n-0" target="VoG-BgtW9BaaPpn9Sk2n-3">
          <mxGeometry relative="1" as="geometry" />
        </mxCell>
        <mxCell id="VoG-BgtW9BaaPpn9Sk2n-0" value="&lt;font face=&quot;ShureTechMono Nerd Font&quot;&gt;Start&lt;/font&gt;" style="ellipse;whiteSpace=wrap;html=1;" vertex="1" parent="WIyWlLk6GJQsqaUBKTNV-1">
          <mxGeometry x="70" y="30" width="120" height="80" as="geometry" />
        </mxCell>
        <mxCell id="VoG-BgtW9BaaPpn9Sk2n-6" value="" style="edgeStyle=orthogonalEdgeStyle;rounded=0;orthogonalLoop=1;jettySize=auto;html=1;fontFamily=ShureTechMono Nerd Font;fontSize=12;fontColor=default;" edge="1" parent="WIyWlLk6GJQsqaUBKTNV-1" source="VoG-BgtW9BaaPpn9Sk2n-3" target="VoG-BgtW9BaaPpn9Sk2n-5">
          <mxGeometry relative="1" as="geometry" />
        </mxCell>
        <mxCell id="VoG-BgtW9BaaPpn9Sk2n-3" value="Import libs" style="shape=parallelogram;perimeter=parallelogramPerimeter;whiteSpace=wrap;html=1;fixedSize=1;fontFamily=ShureTechMono Nerd Font;" vertex="1" parent="WIyWlLk6GJQsqaUBKTNV-1">
          <mxGeometry x="70" y="200" width="120" height="60" as="geometry" />
        </mxCell>
        <mxCell id="VoG-BgtW9BaaPpn9Sk2n-8" value="" style="edgeStyle=orthogonalEdgeStyle;rounded=0;orthogonalLoop=1;jettySize=auto;html=1;fontFamily=ShureTechMono Nerd Font;fontSize=12;fontColor=default;" edge="1" parent="WIyWlLk6GJQsqaUBKTNV-1" source="VoG-BgtW9BaaPpn9Sk2n-5" target="VoG-BgtW9BaaPpn9Sk2n-7">
          <mxGeometry relative="1" as="geometry" />
        </mxCell>
        <mxCell id="VoG-BgtW9BaaPpn9Sk2n-5" value="create objects" style="whiteSpace=wrap;html=1;fontFamily=ShureTechMono Nerd Font;" vertex="1" parent="WIyWlLk6GJQsqaUBKTNV-1">
          <mxGeometry x="70" y="340" width="120" height="60" as="geometry" />
        </mxCell>
        <mxCell id="VoG-BgtW9BaaPpn9Sk2n-10" value="" style="edgeStyle=orthogonalEdgeStyle;rounded=0;orthogonalLoop=1;jettySize=auto;html=1;fontFamily=ShureTechMono Nerd Font;fontSize=12;fontColor=default;" edge="1" parent="WIyWlLk6GJQsqaUBKTNV-1" source="VoG-BgtW9BaaPpn9Sk2n-7" target="VoG-BgtW9BaaPpn9Sk2n-9">
          <mxGeometry relative="1" as="geometry" />
        </mxCell>
        <mxCell id="VoG-BgtW9BaaPpn9Sk2n-7" value="create functions" style="whiteSpace=wrap;html=1;fontFamily=ShureTechMono Nerd Font;" vertex="1" parent="WIyWlLk6GJQsqaUBKTNV-1">
          <mxGeometry x="70" y="480" width="120" height="60" as="geometry" />
        </mxCell>
        <mxCell id="VoG-BgtW9BaaPpn9Sk2n-9" value="" style="whiteSpace=wrap;html=1;fontFamily=ShureTechMono Nerd Font;" vertex="1" parent="WIyWlLk6GJQsqaUBKTNV-1">
          <mxGeometry x="70" y="620" width="120" height="60" as="geometry" />
        </mxCell>
      </root>
    </mxGraphModel>
  </diagram>
</mxfile>
